{
  "title": "Housefull-3 (2016) Tiny 720p Blu-ray x264 AAC 5.1 Subs -DDR",
  "uid": 15962399,
  "size": 2198939605,
  "categoryP": "video",
  "categoryS": "hd___movies",
  "magnet": "?xt=urn:btih:24e1bb9b4af93a59b6cd35b7cfcdedfbe051249b&amp;dn=Housefull-3+%282016%29+Tiny+720p+Blu-ray+x264+AAC+5.1+Subs+-DDR&amp;tr=udp%3A%2F%2Ftracker.leechers-paradise.org%3A6969&amp;tr=udp%3A%2F%2Fzer0day.ch%3A1337&amp;tr=udp%3A%2F%2Fopen.demonii.com%3A1337&amp;tr=udp%3A%2F%2Ftracker.coppersurfer.tk%3A6969&amp;tr=udp%3A%2F%2Fexodus.desync.com%3A6969",
  "seeders": 66,
  "leechers": 148,
  "uploader": "SaM",
  "files": 3,
  "time": 1475684135,
  "description": "** 2016**\r\n\r\n[size=5]** Tiny 720p / Blu-ray Rip / x264\r\n\r\nHindi AAC 5.1 **\r\n\r\n** English &amp; Arabic Subtitle(s) **\r\n\r\n\r\n\r\n[ SCREENS ]\r\n \nhttps://extraimago.com/image/wJyJ \nhttps://extraimago.com/image/wJy0 \nhttps://extraimago.com/image/wJyz \nhttps://extraimago.com/image/wJyU \nhttps://extraimago.com/image/wJyM \nhttps://extraimago.com/image/wJy9 \nhttps://extraimago.com/image/wJy3 \nhttps://extraimago.com/image/wJyh \nhttps://extraimago.com/image/wJyd \nhttps://extraimago.com/image/wJyI \nhttps://extraimago.com/image/wJyl \nhttps://extraimago.com/image/wJyi\r\n\r\n[ Info ]\r\n\r\nSource = BD50 @ DDR\r\nFormat : Matroska\r\nFormat version : Version 4 / Version 2\r\nFile size : 2.03 GiB\r\nDuration : 2 h 14 min\r\nOverall bit rate : 2 166 kb/s\r\n\r\nVideo\r\nID : 1\r\nFormat : AVC\r\nFormat/Info : Advanced Video Codec\r\nFormat profile :   \r\nFormat settings, CABAC : Yes\r\nFormat settings, ReFrames : 12 frames\r\nCodec ID : V_MPEG4/ISO/AVC\r\nDuration : 2 h 14 min\r\nBit rate : 2 000 kb/s\r\nWidth : 1 280 pixels\r\nHeight : 534 pixels\r\nDisplay aspect ratio : 2.40:1\r\nFrame rate mode : Constant\r\nFrame rate : 24.000 FPS\r\nColor space : YUV\r\nChroma subsampling : 4:2:0\r\nBit depth : 8 bits\r\nScan type : Progressive\r\nBits/(Pixel*Frame) : 0.122\r\nStream size : 1.88 GiB (92%)\r\nDefault : Yes\r\nForced : No\r\nColor range : Limited\r\nColor primaries : BT.709\r\nTransfer characteristics : BT.709\r\nMatrix coefficients : BT.709\r\n\r\nAudio\r\nID : 2\r\nFormat : AAC\r\nFormat/Info : Advanced Audio Codec\r\nFormat profile : LC\r\nCodec ID : A_AAC\r\nDuration : 2 h 14 min\r\nBit rate : 160 kb/s\r\nChannel(s) : 6 channels\r\nChannel positions : Front: L C R, Side: L R, LFE\r\nSampling rate : 48.0 kHz\r\nFrame rate : 46.875 FPS (1024 spf)\r\nCompression mode : Lossy\r\nDelay relative to video : 9 ms\r\nStream size : 153 MiB (7%)\r\nLanguage : Hindi\r\nDefault : Yes\r\nForced : No",
  "parsed": {
    "xt": "urn:btih:24e1bb9b4af93a59b6cd35b7cfcdedfbe051249b",
    "dn": "Housefull-3 (2016) Tiny 720p Blu-ray x264 AAC 5.1 Subs -DDR",
    "tr": [
      "udp://exodus.desync.com:6969",
      "udp://open.demonii.com:1337",
      "udp://tracker.coppersurfer.tk:6969",
      "udp://tracker.leechers-paradise.org:6969",
      "udp://zer0day.ch:1337"
    ],
    "infoHash": "24e1bb9b4af93a59b6cd35b7cfcdedfbe051249b",
    "infoHashBuffer": {
      "type": "Buffer",
      "data": [
        36,
        225,
        187,
        155,
        74,
        249,
        58,
        89,
        182,
        205,
        53,
        183,
        207,
        205,
        237,
        251,
        224,
        81,
        36,
        155
      ]
    },
    "name": "Housefull-3 (2016) Tiny 720p Blu-ray x264 AAC 5.1 Subs -DDR",
    "announce": [
      "udp://exodus.desync.com:6969",
      "udp://open.demonii.com:1337",
      "udp://tracker.coppersurfer.tk:6969",
      "udp://tracker.leechers-paradise.org:6969",
      "udp://zer0day.ch:1337"
    ],
    "urlList": []
  },
  "previous": 43,
  "peers": 43,
  "last_updated": "2016-12-26T19:07:59.550Z"
}